<?xml version="1.0" encoding="utf-8" ?>
<svg baseProfile="tiny" height="512px" version="1.2" width="512px" xmlns="http://www.w3.org/2000/svg" xmlns:ev="http://www.w3.org/2001/xml-events" xmlns:xlink="http://www.w3.org/1999/xlink"><defs /><path d="M257.0,256.0 L257.0,256.0 L257.0818369254438,256.2898773305148 L257.0863422665072,256.6272 L256.99343411587887,256.99343411587887 L256.78675968,257.3627077391066 L256.4561275915902,257.70229134654863 L256.0,257.973822685184 L255.42783354910927,258.1353542651106 L254.7620184118526,258.1442470095061 L254.0391372058426,257.9608627941574 L253.31025655127553,257.5529241041721 L252.6399787233899,256.9003149876191 L252.104024007453,256.0 L251.7851893106203,254.87064487953063 L251.76763660999887,253.55644385747453 L252.12960453435886,252.12960453435883 L252.93480317481607,250.69092336358258 L254.22293785362632,249.36791378152608 L256.0,248.3100342049785 L258.2291467564111,247.6807110475463 L260.8231465466375,247.64606512887352 L263.6394743707158,248.36052562928418 L266.47917590234107,249.94984497189793 L269.09056222812,252.49239442250587 L271.17862893450246,255.99999999999997 L272.42080125895376,260.3999404364086 L272.48918615917916,265.5200360677199 L271.07896781580064,271.0789678158006 L267.94193324334793,276.6840351180743 L262.92339145953594,281.8384486876761 L256.0000000000001,285.9599221209112 L247.3152977531584,288.41175003382097 L237.20913684576465,288.5467297012099 L226.23679125601345,285.76320874398687 L215.1733822628025,279.5712587406732 L204.99948383030218,269.6655471212412 L196.86442607139958,256.00000000000034 L192.02495251673085,238.85793769111572 L191.75852658719987,218.9101680319822 L197.25270339725182,197.25270339725262 L209.47451477931742,175.41549575098412 L229.02663308664293,155.33402422815703 L255.99999999999912,139.2768626783529 L289.8353914561132,129.72459999179966 L329.208751728136,129.19872244817014 L371.9567467277356,140.04325327226246 L415.05952256101386,164.16694183222344 L454.6967866046466,202.7593564906239 L486.3907763313144,255.99999999999784" fill="none" stroke="#f7931a" stroke-width="4" /></svg>