<?xml version="1.0" encoding="UTF-8"?><svg width="800" height="600" xmlns="http://www.w3.org/2000/svg"><style>.node{fill:white;stroke:black;stroke-width:2}.arrow{stroke:black;stroke-width:2;fill:none}.text{font-family:monospace;font-size:14px;text-anchor:middle}</style><rect x="300" y="50" width="200" height="60" class="node" rx="5"/><text x="400" y="85" class="text">agent-state</text><rect x="300" y="170" width="200" height="60" class="node" rx="5"/><text x="400" y="205" class="text">signal-response</text><rect x="250" y="290" width="300" height="60" class="node" rx="5"/><text x="400" y="325" class="text">validateAgainstETHOS1(signal)</text><rect x="200" y="410" width="200" height="60" class="node" rx="5"/><text x="300" y="445" class="text">compliant consensus</text><rect x="400" y="410" width="200" height="60" class="node" rx="5"/><text x="500" y="445" class="text">rejected local eval</text><rect x="200" y="530" width="200" height="60" class="node" rx="5"/><text x="300" y="565" class="text">consensus-behavior</text><rect x="400" y="530" width="200" height="60" class="node" rx="5"/><text x="500" y="565" class="text">fallback: autonomy</text><path d="M 400 110 L 400 170" class="arrow" marker-end="url(#arrowhead)"/><path d="M 400 230 L 400 290" class="arrow" marker-end="url(#arrowhead)"/><path d="M 300 350 L 300 410" class="arrow" marker-end="url(#arrowhead)"/><path d="M 500 350 L 500 410" class="arrow" marker-end="url(#arrowhead)"/><path d="M 300 470 L 300 530" class="arrow" marker-end="url(#arrowhead)"/><path d="M 500 470 L 500 530" class="arrow" marker-end="url(#arrowhead)"/><defs><marker id="arrowhead" markerWidth="10" markerHeight="7" refX="9" refY="3.5" orient="auto"><polygon points="0 0, 10 3.5, 0 7" fill="black"/></marker></defs></svg>
